<svg xmlns="http://www.w3.org/2000/svg" width="274" height="126"><path d="M54.29 41.70L29.44 41.70C24.90 41.70 22.70 43.90 22.70 48.44L22.70 81.10C22.70 85.65 24.90 87.85 29.44 87.85L54.29 87.85L54.29 78.76L33.49 78.76L33.49 50.72L54.29 50.72ZM83.05 41.70L83.05 60.23L69.56 60.23L69.56 41.70L58.77 41.70L58.77 87.85L69.56 87.85L69.56 69.32L83.05 69.32L83.05 87.85L93.91 87.85L93.91 41.70ZM99.24 87.85L110.03 87.85L110.03 69.32L114.93 69.32L123.45 87.85L135.09 87.85L126.50 69.32L127.64 69.32C132.11 69.32 134.38 67.05 134.38 62.57L134.38 48.44C134.38 43.90 132.11 41.70 127.64 41.70L99.24 41.70ZM110.03 50.72L123.52 50.72L123.52 60.23L110.03 60.23ZM149.43 52.35L138.64 52.35L138.64 87.85L149.43 87.85ZM149.43 37.94L138.64 37.94L138.64 48.80L149.43 48.80ZM161.01 38.15L161.01 52.35L153.91 52.35L153.91 61.37L161.01 61.37L161.01 81.10C161.01 85.65 163.21 87.85 167.75 87.85L184.79 87.85L184.79 78.76L171.87 78.76L171.87 61.37L184.79 61.37L184.79 52.35L171.87 52.35L171.87 38.15ZM189.26 81.10C189.26 85.65 191.47 87.85 196.01 87.85L216.24 87.85C220.72 87.85 222.99 85.65 222.99 81.10L222.99 59.09C222.99 54.55 220.72 52.35 216.24 52.35L196.01 52.35C191.47 52.35 189.26 54.55 189.26 59.09ZM200.06 78.76L200.06 61.37L212.13 61.37L212.13 78.76ZM252.10 52.35L235.06 52.35C230.52 52.35 228.31 54.55 228.31 59.09L228.31 87.85L239.11 87.85L239.11 61.37L252.10 61.37Z" fill="#ffffff"/></svg>
